<svg xmlns="http://www.w3.org/2000/svg" viewBox="0 0 1280 720" fill="none">
  <rect width="1280" height="720" rx="40" fill="#07111D"/>
  <rect x="56" y="72" width="702" height="576" rx="36" fill="#0F1A2D"/>
  <rect x="790" y="72" width="434" height="576" rx="36" fill="#0F1A2D"/>
  <rect x="108" y="146" width="260" height="28" rx="14" fill="#164E63"/>
  <rect x="108" y="196" width="520" height="24" rx="12" fill="#153047"/>
  <rect x="108" y="252" width="180" height="64" rx="24" fill="#103147"/>
  <rect x="312" y="252" width="180" height="64" rx="24" fill="#103147"/>
  <rect x="516" y="252" width="180" height="64" rx="24" fill="#103147"/>
  <rect x="108" y="352" width="588" height="66" rx="24" fill="#12253B"/>
  <rect x="844" y="168" width="326" height="326" rx="38" fill="#0B2236"/>
  <rect x="882" y="206" width="250" height="250" rx="24" fill="#F8FAFC"/>
  <rect x="844" y="530" width="150" height="48" rx="24" fill="#22D3EE"/>
  <rect x="1020" y="530" width="150" height="48" rx="24" fill="#153047"/>
</svg>
